<svg xmlns="http://www.w3.org/2000/svg" width="120" height="30.114" viewBox="0 0 120 30.114"><defs><style>.a{fill-rule:evenodd;}</style></defs><path class="a" d="M55.3-34.748,59.111-21l3.81-13.753h4.838s-5.074,16.907-5.352,17.875c-.237.808-1.266,4.015-3.37,5.27a6.315,6.315,0,0,1-3.56.934H49.969v-4.374h5.255c.674-.006.962-.735.759-1.383h0l-.139-.449L50.46-34.748ZM28.439-40.776v6.029h5.984v4.379H28.439s.011,8.379,0,9.071c.011,1.2.94,1.571,2.373,1.571h3.612v4.38H29.79c-6.241,0-5.716-5.95-5.716-5.95h0l0-9.071s-13.868.005-15.174,0A1.5,1.5,0,0,0,7.355-28.8,1.493,1.493,0,0,0,8.9-27.235h7.3s6.27-.127,6.27,5.93-5.922,5.969-6.256,5.959H0v-4.376H16.269a1.5,1.5,0,0,0,1.55-1.569,1.483,1.483,0,0,0-1.55-1.563H8.937s-6.172.262-6.172-5.936c0-6.219,6.172-5.956,6.172-5.956H24.071v-6.029ZM44.227-34.75s6.058-.257,6.058,5.876h0v2.869H45.9v-2.307c0-1.262-.576-1.9-1.7-1.9h0l-3.7,0,0,14.866H36.077v-19.4Zm69.716,0S120-35.007,120-28.874h0v2.869h-4.38v-2.307c0-1.262-.576-1.9-1.7-1.9h0l-3.7,0,0,14.866h-4.433v-19.4ZM73.486-40.776V-27.4l6.065-7.352h5.7l-6.159,7.462,6.7,11.94h-5.01L75.968-23.9,73.486-20.8v5.456H69.111V-40.776Zm20.837,5.92a9.554,9.554,0,0,1,9.691,9.732,9.637,9.637,0,0,1-.155,1.728h0l-14.481,0c.285,2.031,2.775,3.672,5.037,3.672h5.923v4.379H94.023a9.586,9.586,0,0,1-9.46-9.767C84.563-30.48,88.282-34.749,94.323-34.856Zm0,4.232c-2.284,0-4.576,1.7-4.945,3.408h9.891A5.152,5.152,0,0,0,94.323-30.625Z" transform="translate(0 40.776)"/></svg>